{"title":"Cars 2 (2011) BRRip NL subs DutchReleaseTeam","uid":6742123,"size":736604679,"categoryP":"video","categoryS":"movies","magnet":"?xt=urn:btih:22e7a04a35f68f7a65b2a7e4be5706c5c5d0dedc&amp;dn=Cars+2+%282011%29+BRRip+NL+subs+DutchReleaseTeam&amp;tr=udp%3A%2F%2Ftracker.openbittorrent.com%3A80&amp;tr=udp%3A%2F%2Fopen.demonii.com%3A1337&amp;tr=udp%3A%2F%2Ftracker.coppersurfer.tk%3A6969&amp;tr=udp%3A%2F%2Fexodus.desync.com%3A6969","seeders":2,"leechers":0,"uploader":"Koedje","files":-1,"time":1318547438,"description":" &lt;a href=&quot;http://img832.imageshack.us/img832/4940/cars2c.jpg&quot; rel=&quot;nofollow&quot; target=&quot;_NEW&quot;&gt;http://img832.imageshack.us/img832/4940/cars2c.jpg&lt;/a&gt;\n\n\nVerenigde Staten\nAnimatie / Komedie\n112 minuten\n\ngeregisseerd door John Lasseter en Brad Lewis\nmet de stemmen van Owen Wilson, Larry The Cable Guy en Bonnie Hunt\n\nDe grote ster uit het racecircuit Lightning McQueen en zijn trouwe mecanicien en vriend Mater reizen naar Japan en Europa voor hun eerste grote Grand Prix. Maar alsof de snelste auto ter wereld worden nog niet moeilijk genoeg is, raakt Mater betrokken bij een internationaal spionagecomplot. Nu moet hij zijn tijd verdelen tussen een geheime spionage-missie en het assisteren van Lightning op het circuit.\n\n\nVertaald door Simply ReleaseS Toppers\nHeksje, Biteme en Suurtje\n\n\n\n\nScreenshots:\n &lt;a href=&quot;\nhttp://img35.imageshack.us/img35/9965/screenshot1vj.jpg&quot; rel=&quot;nofollow&quot; target=&quot;_NEW&quot;&gt;\nhttp://img35.imageshack.us/img35/9965/screenshot1vj.jpg&lt;/a&gt;\n &lt;a href=&quot;\nhttp://img841.imageshack.us/img841/5424/screenshot2uw.jpg&quot; rel=&quot;nofollow&quot; target=&quot;_NEW&quot;&gt;\nhttp://img841.imageshack.us/img841/5424/screenshot2uw.jpg&lt;/a&gt;\n &lt;a href=&quot;\nhttp://img13.imageshack.us/img13/5938/screenshot3ck.jpg&quot; rel=&quot;nofollow&quot; target=&quot;_NEW&quot;&gt;\nhttp://img13.imageshack.us/img13/5938/screenshot3ck.jpg&lt;/a&gt;\n &lt;a href=&quot;\nhttp://img265.imageshack.us/img265/7291/screenshot4xs.jpg&quot; rel=&quot;nofollow&quot; target=&quot;_NEW&quot;&gt;\nhttp://img265.imageshack.us/img265/7291/screenshot4xs.jpg&lt;/a&gt;\n\n\n\n\nINFO;\n\n\n\nVideo\nID                                       : 0\nFormat                                   : MPEG-4 Visual\nFormat profile                           : Advanced Simple@L5\nFormat settings, BVOP                    : 1\nFormat settings, QPel                    : No\nFormat settings, GMC                     : No warppoints\nFormat settings, Matrix                  : Custom\nCodec ID                                 : XVID\nCodec ID/Hint                            : XviD\nDuration                                 : 1h 47mn\nBit rate                                 : 786 Kbps\nWidth                                    : 560 pixels\nHeight                                   : 240 pixels\nDisplay aspect ratio                     : 2.35:1\nFrame rate                               : 23.976 fps\nColor space                              : YUV\nChroma subsampling                       : 4:2:0\nBit depth                                : 8 bits\nScan type                                : Progressive\nCompression mode                         : Lossy\nBits/(Pixel*Frame)                       : 0.244\nStream size                              : 602 MiB (86%)\nWriting library                          : XviD 64\n\nAudio\nID                                       : 1\nFormat                                   : MPEG Audio\nFormat version                           : Version 1\nFormat profile                           : Layer 3\nMode                                     : Joint stereo\nCodec ID                                 : 55\nCodec ID/Hint                            : MP3\nDuration                                 : 1h 47mn\nBit rate mode                            : Variable\nBit rate                                 : 116 Kbps\nNominal bit rate                         : 128 Kbps\nChannel(s)                               : 2 channels\nSampling rate                            : 48.0 KHz\nCompression mode                         : Lossy\nStream size                              : 89.1 MiB (13%)\nAlignment                                : Aligned on interleaves\nInterleave, duration                     : 24 ms (0.58 video frame)\nInterleave, preload duration             : 446 ms\nWriting library                          : LAME3.98r\n\n\n\n &lt;a href=&quot;\nhttp://www.imdb.com/title/tt1216475/&quot; rel=&quot;nofollow&quot; target=&quot;_NEW&quot;&gt;\nhttp://www.imdb.com/title/tt1216475/&lt;/a&gt; &lt;a href=&quot;\nhttp://www.moviemeter.nl/film/71924&quot; rel=&quot;nofollow&quot; target=&quot;_NEW&quot;&gt;\nhttp://www.moviemeter.nl/film/71924&lt;/a&gt;\n\n\nDeze film wordt u aangeboden door het DutchReleaseTeam.\nVoor de reviews van de nieuwste films, muziek, series, games etc\nga dan eens naar http://www.hetmultimediacafe.be\n\nDutchReleaseteam = Hardcoded Dutch Subs","torrent":{"xt":"urn:btih:22e7a04a35f68f7a65b2a7e4be5706c5c5d0dedc","amp;dn":"Cars+2+%282011%29+BRRip+NL+subs+DutchReleaseTeam","amp;tr":["udp%3A%2F%2Ftracker.openbittorrent.com%3A80","udp%3A%2F%2Fopen.demonii.com%3A1337","udp%3A%2F%2Ftracker.coppersurfer.tk%3A6969","udp%3A%2F%2Fexodus.desync.com%3A6969"],"infoHash":"22e7a04a35f68f7a65b2a7e4be5706c5c5d0dedc","infoHashBuffer":{"type":"Buffer","data":[34,231,160,74,53,246,143,122,101,178,167,228,190,87,6,197,197,208,222,220]},"announce":[],"urlList":[]}}